<?xml version="1.0" encoding="UTF-8" standalone="no"?>
<svg
   xmlns:dc="http://purl.org/dc/elements/1.1/"
   xmlns:cc="http://creativecommons.org/ns#"
   xmlns:rdf="http://www.w3.org/1999/02/22-rdf-syntax-ns#"
   xmlns:svg="http://www.w3.org/2000/svg"
   xmlns="http://www.w3.org/2000/svg"
   xmlns:sodipodi="http://sodipodi.sourceforge.net/DTD/sodipodi-0.dtd"
   xmlns:inkscape="http://www.inkscape.org/namespaces/inkscape"
   version="1.1"
   id="Layer_1"
   x="0px"
   y="0px"
   width="110"
   height="105"
   viewBox="0 0 871.2 831.6"
   enable-background="new 0 0 612 792"
   xml:space="preserve"
   inkscape:version="0.48.2 r9819"
   sodipodi:docname="journal.svg"
   inkscape:export-filename="C:\Users\skauffmann\workspace\tyneo-website\public\img\newspaper.png"
   inkscape:export-xdpi="90"
   inkscape:export-ydpi="90"><metadata
   id="metadata11"><rdf:RDF><cc:Work
       rdf:about=""><dc:format>image/svg+xml</dc:format><dc:type
         rdf:resource="http://purl.org/dc/dcmitype/StillImage" /><dc:title></dc:title></cc:Work></rdf:RDF></metadata><defs
   id="defs9" /><sodipodi:namedview
   pagecolor="#ffffff"
   bordercolor="#666666"
   borderopacity="1"
   objecttolerance="10"
   gridtolerance="10"
   guidetolerance="10"
   inkscape:pageopacity="0"
   inkscape:pageshadow="2"
   inkscape:window-width="1366"
   inkscape:window-height="716"
   id="namedview7"
   showgrid="false"
   inkscape:zoom="2.36"
   inkscape:cx="-33.172149"
   inkscape:cy="103.41485"
   inkscape:window-x="-8"
   inkscape:window-y="-8"
   inkscape:window-maximized="1"
   inkscape:current-layer="Layer_1" />
<g
   id="g3"
   style="fill:#202020;fill-opacity:1"
   inkscape:export-filename="C:\Users\skauffmann\workspace\tyneo-website\public\img\newspaper.png"
   inkscape:export-xdpi="630.00543"
   inkscape:export-ydpi="630.00543"
   transform="matrix(5.4996774,0,0,5.4996774,-1173.0432,-1342.0607)">
	<path
   d="m 369.344,273.496 v 100.999 c 0,9.4 -8.199,17.8 -16.799,17.8 H 237.746 c -14.2,0 -21.8,-7.4 -21.8,-25.399 v -73.799 h 21.2 v -19.6 h 132.198 z m -132.198,30.4 h -10.4 v 62.999 c 0,9.2 2.2,13.6 5,13.6 3.4,0 5.4,-4.4 5.4,-13.6 v -62.999 z m 121.399,-19.6 H 247.946 v 82.599 c 0,6.4 -1.2,11 -3,14.6 h 107.599 c 3.6,0 6,-4.2 6,-7 v -90.199 z m -68,37.999 h -25.4 v -3.6 h 25.4 v 3.6 z m 0,11.8 h -25.4 v -3.6 h 25.4 v 3.6 z m 0,11.4 h -25.4 v -3.6 h 25.4 v 3.6 z m 0,11 h -25.4 v -3.6 h 25.4 v 3.6 z m 0,11.4 h -25.4 v -3.6 h 25.4 v 3.6 z m -21.599,-67.799 h 66.599 v 7 h -66.599 v -7 z m 31.599,18.599 h 42.599 v 40.6 h -42.599 v -40.6 z"
   id="path5"
   style="fill:#202020;fill-opacity:1"
   inkscape:connector-curvature="0" />
</g>
</svg>