<?xml version="1.0" encoding="UTF-8" standalone="no"?>
<svg
   xmlns:dc="http://purl.org/dc/elements/1.1/"
   xmlns:cc="http://creativecommons.org/ns#"
   xmlns:rdf="http://www.w3.org/1999/02/22-rdf-syntax-ns#"
   xmlns:svg="http://www.w3.org/2000/svg"
   xmlns="http://www.w3.org/2000/svg"
   xmlns:sodipodi="http://sodipodi.sourceforge.net/DTD/sodipodi-0.dtd"
   xmlns:inkscape="http://www.inkscape.org/namespaces/inkscape"
   version="1.1"
   x="0px"
   y="0px"
   width="100px"
   height="100px"
   viewBox="-8.462 -1 100 100"
   overflow="visible"
   enable-background="new -8.462 -1 100 100"
   xml:space="preserve"
   id="svg2"
   inkscape:version="0.48.2 r9819"
   sodipodi:docname="monitor.svg"><metadata
   id="metadata10"><rdf:RDF><cc:Work
       rdf:about=""><dc:format>image/svg+xml</dc:format><dc:type
         rdf:resource="http://purl.org/dc/dcmitype/StillImage" /><dc:title></dc:title></cc:Work></rdf:RDF></metadata><sodipodi:namedview
   pagecolor="#ffffff"
   bordercolor="#666666"
   borderopacity="1"
   objecttolerance="10"
   gridtolerance="10"
   guidetolerance="10"
   inkscape:pageopacity="0"
   inkscape:pageshadow="2"
   inkscape:window-width="740"
   inkscape:window-height="480"
   id="namedview8"
   showgrid="false"
   inkscape:zoom="2.36"
   inkscape:cx="50"
   inkscape:cy="50"
   inkscape:window-x="335"
   inkscape:window-y="129"
   inkscape:window-maximized="0"
   inkscape:current-layer="svg2" />
<defs
   id="defs4">
</defs>
<path
   fill="#000000"
   d="M66.825,30.322h-7.339l9.076-24.414c0.843-2.268-0.312-4.79-2.58-5.632c-2.278-0.845-4.792,0.312-5.635,2.58  L52.97,22.705L45.647,2.866c-0.837-2.271-3.359-3.431-5.626-2.594c-2.27,0.839-3.431,3.357-2.594,5.627l9.015,24.423H16.251  C7.29,30.322,0,37.612,0,46.573v35.178C0,90.71,7.29,98,16.251,98h50.574c8.961,0,16.251-7.29,16.251-16.249V46.573  C83.076,37.612,75.786,30.322,66.825,30.322z M72.124,81.751c0,2.922-2.372,5.296-5.299,5.296H16.251  c-2.926,0-5.299-2.374-5.299-5.296V46.573c0-2.926,2.373-5.299,5.299-5.299h50.574c2.927,0,5.299,2.373,5.299,5.299V81.751z"
   id="path6"
   style="fill:#202020;fill-opacity:1"
   inkscape:export-filename="C:\Users\skauffmann\workspace\tyneo-website\public\img\monitor.png"
   inkscape:export-xdpi="96.428062"
   inkscape:export-ydpi="96.428062" />
</svg>