<?xml version="1.0" encoding="UTF-8" standalone="no"?>
<svg
   xmlns:dc="http://purl.org/dc/elements/1.1/"
   xmlns:cc="http://creativecommons.org/ns#"
   xmlns:rdf="http://www.w3.org/1999/02/22-rdf-syntax-ns#"
   xmlns:svg="http://www.w3.org/2000/svg"
   xmlns="http://www.w3.org/2000/svg"
   xmlns:sodipodi="http://sodipodi.sourceforge.net/DTD/sodipodi-0.dtd"
   xmlns:inkscape="http://www.inkscape.org/namespaces/inkscape"
   version="1.1"
   id="Layer_1"
   x="0px"
   y="0px"
   width="100px"
   height="100px"
   viewBox="0 0 100 100"
   enable-background="new 0 0 100 100"
   xml:space="preserve"
   inkscape:version="0.48.2 r9819"
   sodipodi:docname="noun_project_1800.svg"
   inkscape:export-filename="C:\Users\skauffmann\workspace\tyneo-website\public\css\img\certified-g.png"
   inkscape:export-xdpi="16.200001"
   inkscape:export-ydpi="16.200001"><metadata
   id="metadata13"><rdf:RDF><cc:Work
       rdf:about=""><dc:format>image/svg+xml</dc:format><dc:type
         rdf:resource="http://purl.org/dc/dcmitype/StillImage" /><dc:title></dc:title></cc:Work></rdf:RDF></metadata><defs
   id="defs11" /><sodipodi:namedview
   pagecolor="#ffffff"
   bordercolor="#666666"
   borderopacity="1"
   objecttolerance="10"
   gridtolerance="10"
   guidetolerance="10"
   inkscape:pageopacity="0"
   inkscape:pageshadow="2"
   inkscape:window-width="740"
   inkscape:window-height="480"
   id="namedview9"
   showgrid="false"
   inkscape:zoom="2.36"
   inkscape:cx="50"
   inkscape:cy="62.449951"
   inkscape:window-x="0"
   inkscape:window-y="0"
   inkscape:window-maximized="0"
   inkscape:current-layer="Layer_1" />
<g
   id="g3"
   style="fill:#74941f;fill-opacity:1">
	<path
   d="M0.658,8.423v54.339c0,4.055,3.25,7.342,7.257,7.342h54.979l1.228-5.442H6.101V13.865h64.196h1.135h9.049V8.423H0.658z"
   id="path5"
   style="fill:#74941f;fill-opacity:1" />
</g>
<path
   d="M99.658,38.794c0-1.713-1.04-3.181-2.523-3.809c0.735-0.747,1.19-1.771,1.19-2.902c0-2.273-1.833-4.114-4.101-4.133  c0.194-0.48,0.303-1.003,0.303-1.552c0-2.285-1.85-4.135-4.135-4.135c-0.547,0-1.063,0.107-1.543,0.299  c-0.019-2.268-1.859-4.102-4.133-4.102c-1.127,0-2.146,0.454-2.895,1.186c-0.629-1.483-2.096-2.521-3.807-2.521  s-3.18,1.037-3.808,2.521c-0.747-0.731-1.769-1.186-2.896-1.186c-2.271,0-4.113,1.833-4.133,4.102  c-0.477-0.191-0.996-0.299-1.543-0.299c-2.283,0-4.135,1.85-4.135,4.135c0,0.548,0.107,1.072,0.303,1.552  c-2.266,0.019-4.098,1.86-4.098,4.132c0,1.132,0.454,2.155,1.189,2.901c-1.481,0.628-2.521,2.096-2.523,3.807c0,0,0,0.002,0,0.004  v0.003c0.002,1.713,1.042,3.179,2.523,3.807c-0.734,0.746-1.189,1.77-1.189,2.901c0,2.272,1.832,4.114,4.098,4.133  c-0.193,0.479-0.302,1.002-0.302,1.551c0,2.285,1.851,4.138,4.136,4.138c0.545,0,1.065-0.109,1.543-0.3  c0.017,1.812,1.197,3.347,2.834,3.887l-6.111,27.247l7.596-4.474l4.001,7.078l2.515-11.211l3.309,14.122l4.08-7.575l7.242,4.662  l-6.631-29.851c1.637-0.54,2.818-2.073,2.836-3.888c0.477,0.19,0.996,0.301,1.541,0.301c2.285,0,4.135-1.854,4.135-4.137  c0-0.549-0.107-1.072-0.303-1.552c2.269-0.02,4.1-1.861,4.1-4.133c0-1.131-0.455-2.155-1.19-2.902  C98.618,41.976,99.658,40.508,99.658,38.794z M78.018,52.243c-7.427,0-13.451-6.021-13.451-13.451  c0-7.426,6.024-13.448,13.451-13.448c7.426,0,13.449,6.021,13.449,13.448C91.467,46.223,85.443,52.243,78.018,52.243z"
   id="path7"
   style="fill:#74941f;fill-opacity:1" />
</svg>