<?xml version="1.0" encoding="UTF-8" standalone="no"?>
<!-- Generator: Adobe Illustrator 14.0.0, SVG Export Plug-In . SVG Version: 6.00 Build 43363)  -->

<svg
   xmlns:dc="http://purl.org/dc/elements/1.1/"
   xmlns:cc="http://creativecommons.org/ns#"
   xmlns:rdf="http://www.w3.org/1999/02/22-rdf-syntax-ns#"
   xmlns:svg="http://www.w3.org/2000/svg"
   xmlns="http://www.w3.org/2000/svg"
   xmlns:sodipodi="http://sodipodi.sourceforge.net/DTD/sodipodi-0.dtd"
   xmlns:inkscape="http://www.inkscape.org/namespaces/inkscape"
   version="1.0"
   id="Layer_1"
   x="0px"
   y="0px"
   width="100px"
   height="100px"
   viewBox="0 0 100 100"
   enable-background="new 0 0 100 100"
   xml:space="preserve"
   inkscape:version="0.48.1 "
   sodipodi:docname="developpement.svg"><metadata
   id="metadata9"><rdf:RDF><cc:Work
       rdf:about=""><dc:format>image/svg+xml</dc:format><dc:type
         rdf:resource="http://purl.org/dc/dcmitype/StillImage" /><dc:title></dc:title></cc:Work></rdf:RDF></metadata><defs
   id="defs7" /><sodipodi:namedview
   pagecolor="#ffffff"
   bordercolor="#666666"
   borderopacity="1"
   objecttolerance="10"
   gridtolerance="10"
   guidetolerance="10"
   inkscape:pageopacity="0"
   inkscape:pageshadow="2"
   inkscape:window-width="721"
   inkscape:window-height="709"
   id="namedview5"
   showgrid="false"
   inkscape:zoom="2.93"
   inkscape:cx="48.746616"
   inkscape:cy="50"
   inkscape:window-x="0"
   inkscape:window-y="0"
   inkscape:window-maximized="0"
   inkscape:current-layer="Layer_1" />
<path
   d="M80.592,61.185H69.188v-22.37h11.404c10.702,0,19.408-8.706,19.408-19.408C100,8.706,91.294,0,80.592,0  c-10.7,0-19.407,8.706-19.407,19.407v11.405H38.815V19.407C38.815,8.706,30.108,0,19.407,0S0,8.706,0,19.407  c0,10.702,8.706,19.408,19.407,19.408h11.404v22.37H19.407C8.706,61.185,0,69.891,0,80.592C0,91.294,8.706,100,19.407,100  s19.408-8.706,19.408-19.408V69.188h22.369v11.404c0,10.702,8.707,19.408,19.407,19.408C91.294,100,100,91.294,100,80.592  C100,69.891,91.294,61.185,80.592,61.185z M69.188,19.407c0-6.288,5.116-11.404,11.404-11.404c6.289,0,11.405,5.116,11.405,11.404  c0,6.289-5.116,11.405-11.405,11.405H69.188V19.407z M19.407,30.812c-6.288,0-11.404-5.116-11.404-11.405  c0-6.288,5.116-11.404,11.404-11.404c6.289,0,11.404,5.116,11.404,11.404v11.405H19.407z M30.812,80.592  c0,6.289-5.115,11.404-11.404,11.404c-6.288,0-11.404-5.115-11.404-11.404c0-6.288,5.116-11.404,11.404-11.404h11.404V80.592z   M38.815,61.185v-22.37h22.369v22.37H38.815z M80.592,91.997c-6.288,0-11.404-5.115-11.404-11.404V69.188h11.404  c6.289,0,11.405,5.116,11.405,11.404C91.997,86.881,86.881,91.997,80.592,91.997z"
   id="path3"
   style="fill:#74941f;fill-opacity:1"
   inkscape:export-xdpi="28.799999"
   inkscape:export-ydpi="28.799999"
   inkscape:export-filename="p:\document\Desktop\Documents\Autre\perso\web site\html\img\ico-developpement.png" />
</svg>