<?xml version="1.0" encoding="UTF-8" standalone="no"?>
<svg
   xmlns:dc="http://purl.org/dc/elements/1.1/"
   xmlns:cc="http://creativecommons.org/ns#"
   xmlns:rdf="http://www.w3.org/1999/02/22-rdf-syntax-ns#"
   xmlns:svg="http://www.w3.org/2000/svg"
   xmlns="http://www.w3.org/2000/svg"
   xmlns:sodipodi="http://sodipodi.sourceforge.net/DTD/sodipodi-0.dtd"
   xmlns:inkscape="http://www.inkscape.org/namespaces/inkscape"
   version="1.1"
   id="Layer_1"
   x="0px"
   y="0px"
   width="100px"
   height="100px"
   viewBox="0 0 100 100"
   enable-background="new 0 0 100 100"
   xml:space="preserve"
   inkscape:version="0.48.1 "
   sodipodi:docname="Formation.svg"><metadata
   id="metadata25"><rdf:RDF><cc:Work
       rdf:about=""><dc:format>image/svg+xml</dc:format><dc:type
         rdf:resource="http://purl.org/dc/dcmitype/StillImage" /><dc:title></dc:title></cc:Work></rdf:RDF></metadata><defs
   id="defs23" /><sodipodi:namedview
   pagecolor="#ffffff"
   bordercolor="#666666"
   borderopacity="1"
   objecttolerance="10"
   gridtolerance="10"
   guidetolerance="10"
   inkscape:pageopacity="0"
   inkscape:pageshadow="2"
   inkscape:window-width="716"
   inkscape:window-height="480"
   id="namedview21"
   showgrid="false"
   inkscape:zoom="2.93"
   inkscape:cx="50"
   inkscape:cy="50"
   inkscape:window-x="0"
   inkscape:window-y="0"
   inkscape:window-maximized="0"
   inkscape:current-layer="Layer_1" />
<g
   id="g3"
   style="fill:#50a3d9;fill-opacity:1"
   inkscape:export-filename="p:\document\Desktop\Documents\Autre\perso\web site\html\img\formation.png"
   inkscape:export-xdpi="67.110001"
   inkscape:export-ydpi="67.110001">
	<path
   fill="#000000"
   d="M64.008,72.381c4.002-3.149,12.23-11.582,15.089-21.179c-6.511-8.01-33.912-42.187-40.238-50.08   C38.212,8.613,31.63,24.377,20.21,29.646c-5.247,2.56-10.477,4.156-12.467,4.721l39.077,47.32   C51.235,80.263,59.958,75.56,64.008,72.381z"
   id="path5"
   style="fill:#50a3d9;fill-opacity:1" />
	<g
   id="g7"
   style="fill:#50a3d9;fill-opacity:1">
		<g
   id="g9"
   style="fill:#50a3d9;fill-opacity:1">
			<path
   fill="#000000"
   d="M90.405,75.352c-6.5,3.781-13.381,7.281-20.674,9.929c-8.632,3.134-19.05,6.681-22.386,7.664v5.127     l43.046-15.479L90.405,75.352z"
   id="path11"
   style="fill:#50a3d9;fill-opacity:1" />
			<polygon
   fill="#000000"
   points="6.891,35.865 6.891,50.088 45.703,97.945 45.736,82.902    "
   id="polygon13"
   style="fill:#50a3d9;fill-opacity:1" />
		</g>
		<path
   fill="#000000"
   d="M88.717,70.42c-5.018,3.936-11.386,7.921-18.278,11.363c-6.521,3.266-20.879,7.668-23.093,8.339v1.144    c3.686-1.09,13.036-3.898,21.237-7.013c9.104-3.457,22.12-11.628,22.12-11.628L88.717,70.42z"
   id="path15"
   style="fill:#50a3d9;fill-opacity:1" />
	</g>
	<path
   fill="#000000"
   d="M80.877,50.835l-0.114,0.403c-2.851,10.142-11.25,18.858-15.762,22.409   c-4.225,3.319-13.009,8.054-17.655,9.561v2.168c6.53-2.034,15.656-6.36,20.721-9.922c8.699-6.128,17.195-14.63,22.419-22.404   l0.047,0.036C84.648,46.442,51.938,9.001,49.818,6.309c-0.719,1.357-1.368,2.265-2.422,2.887   c10.832,13.508,28.598,35.647,33.217,41.314L80.877,50.835z"
   id="path17"
   style="fill:#50a3d9;fill-opacity:1" />
	<path
   fill="#000000"
   d="M87.321,59.925c0,0-11.588,12.1-18.328,16.846c-5.696,4.008-14.5,7.942-21.647,10.168v1.498   c0.692-0.212,1.838-0.566,3.268-1.021c5.266-1.677,14.41-4.722,19.106-7.072c9.305-4.648,17.623-10.274,22.834-15.386   c0.054-0.053,0.106-0.106,0.161-0.16L87.321,59.925z"
   id="path19"
   style="fill:#50a3d9;fill-opacity:1" />
</g>
</svg>