<?xml version="1.0" encoding="UTF-8" standalone="no"?>
<!-- Generator: Adobe Illustrator 15.1.0, SVG Export Plug-In . SVG Version: 6.00 Build 0)  -->

<svg
   xmlns:dc="http://purl.org/dc/elements/1.1/"
   xmlns:cc="http://creativecommons.org/ns#"
   xmlns:rdf="http://www.w3.org/1999/02/22-rdf-syntax-ns#"
   xmlns:svg="http://www.w3.org/2000/svg"
   xmlns="http://www.w3.org/2000/svg"
   xmlns:sodipodi="http://sodipodi.sourceforge.net/DTD/sodipodi-0.dtd"
   xmlns:inkscape="http://www.inkscape.org/namespaces/inkscape"
   version="1.1"
   id="Layer_1"
   x="0px"
   y="0px"
   width="100px"
   height="100px"
   viewBox="0 0 100 100"
   enable-background="new 0 0 100 100"
   xml:space="preserve"
   inkscape:version="0.48.1 "
   sodipodi:docname="noun_project_95.svg"><metadata
   id="metadata11"><rdf:RDF><cc:Work
       rdf:about=""><dc:format>image/svg+xml</dc:format><dc:type
         rdf:resource="http://purl.org/dc/dcmitype/StillImage" /><dc:title></dc:title></cc:Work></rdf:RDF></metadata><defs
   id="defs9" /><sodipodi:namedview
   pagecolor="#ffffff"
   bordercolor="#666666"
   borderopacity="1"
   objecttolerance="10"
   gridtolerance="10"
   guidetolerance="10"
   inkscape:pageopacity="0"
   inkscape:pageshadow="2"
   inkscape:window-width="716"
   inkscape:window-height="480"
   id="namedview7"
   showgrid="false"
   inkscape:zoom="2.93"
   inkscape:cx="50"
   inkscape:cy="50"
   inkscape:window-x="0"
   inkscape:window-y="0"
   inkscape:window-maximized="0"
   inkscape:current-layer="Layer_1" />
<path
   d="M88.895,11.105c-14.807-14.807-38.812-14.807-53.619,0c-14.807,14.806-14.807,38.812,0,53.619  c14.807,14.807,38.812,14.807,53.619,0S103.702,25.912,88.895,11.105z M84.662,60.492c-12.469,12.468-32.684,12.468-45.153,0  c-12.468-12.469-12.468-32.685,0-45.153c12.469-12.468,32.685-12.469,45.153,0S97.13,48.022,84.662,60.492z"
   id="path3"
   style="fill:#bc006e;fill-opacity:1" />
<rect
   x="12.357"
   y="61.701"
   transform="matrix(0.7071 0.7071 -0.7071 0.7071 63.1103 10.9445)"
   width="11.973"
   height="39.91"
   id="rect5"
   style="fill:#bc006e;fill-opacity:1" />
</svg>